<svg width="264" height="40" viewBox="0 0 264 40" fill="none" xmlns="http://www.w3.org/2000/svg">
<path d="M20.2709 40C31.4662 40 40.5417 31.0457 40.5417 20C40.5417 8.95431 31.4662 0 20.2709 0C9.07558 0 0 8.95431 0 20C0 31.0457 9.07558 40 20.2709 40Z" fill="#00529C"/>
<path d="M39.3446 19.0551C38.786 8.66137 29.8476 0.629873 19.3132 1.18105C14.2056 1.41727 9.49698 3.622 6.0653 7.40153C2.63362 11.1023 0.87787 15.9842 1.11729 21.0236C1.59613 31.1023 10.0556 38.9763 20.1911 38.9763C20.5103 38.9763 20.8295 38.9763 21.1487 38.9763C31.763 38.3464 39.9033 29.4488 39.3446 19.0551ZM21.1487 37.0078C11.5719 37.4803 3.51149 30.2362 3.03265 20.7874C3.03265 20.1574 3.03265 19.6063 3.03265 18.9763C3.03265 19.0551 3.11245 19.0551 3.11245 19.1338C5.66626 22.1259 9.09794 24.9606 12.769 26.8503C12.4498 26.5354 12.2104 26.2992 11.971 25.9842C10.9335 24.8031 10.2152 23.4645 9.65659 22.1259C7.2624 20.3149 5.26723 18.1889 3.59129 15.8267C3.59129 15.8267 3.59129 15.748 3.51149 15.748C4.22974 13.0708 5.50665 10.6299 7.42201 8.50389C10.5345 5.11806 14.7642 3.14956 19.393 2.91334C19.7122 2.91334 19.9516 2.91334 20.2709 2.91334C26.5756 2.91334 32.162 6.29917 35.1947 11.3385C34.9553 12.2834 34.7158 12.9133 34.636 13.0708C32.6409 19.37 26.2563 26.6929 20.5901 27.0078C20.1112 27.0078 19.5526 27.0078 19.0738 26.9291C18.1959 26.7716 17.3978 26.5354 16.6796 26.1417C10.295 22.8346 12.37 12.9133 19.8718 12.5196C25.6179 12.2047 29.6082 18.7401 26.5756 23.4645C28.0121 22.0472 29.1294 20.3937 29.8477 18.5826C29.3688 14.7244 26.4958 11.496 22.7449 10.5511C21.7872 10.2362 20.7497 10.1574 19.792 10.2362C14.844 10.4724 10.9335 14.3307 10.6941 18.8976C10.2152 26.6141 16.9988 29.1338 19.7122 29.2913C26.416 29.6063 32.4813 24.0157 36.8706 20.7086C36.8706 20.7086 37.1898 20.4724 37.5889 20.2362C37.5091 29.1338 30.3265 36.6141 21.1487 37.0078Z" fill="#FFDF00"/>
<path d="M56.2636 23.6222H53.1511V28.1891H49.48V12.0474H56.2636C59.5357 12.0474 61.9299 14.1734 61.9299 17.8741C62.0097 21.4962 59.2164 23.6222 56.2636 23.6222ZM56.0242 15.5907H53.1511V20.2363H55.8646C57.4607 20.2363 58.4982 19.2127 58.4982 17.8741C58.4982 16.4568 57.5405 15.5907 56.0242 15.5907Z" fill="#00529C"/>
<path d="M72.6239 28.5827C68.5538 28.5827 64.4837 25.7481 64.4837 20.0788C64.4837 14.252 68.6336 11.4961 72.6239 11.4961C76.6941 11.4961 80.7642 14.4882 80.7642 20.0788C80.7642 25.8268 76.6941 28.5827 72.6239 28.5827ZM72.6239 15.0394C69.5115 15.0394 67.9154 17.3229 67.9154 20.1575C67.9154 22.8347 69.5115 25.1181 72.6239 25.1181C75.7364 25.1181 77.3325 22.9922 77.3325 20.1575C77.3325 17.4016 75.7364 15.0394 72.6239 15.0394Z" fill="#00529C"/>
<path d="M89.3833 28.3464C87.0689 28.3464 85.5526 27.7164 83.1584 26.0629L84.2757 22.9133C86.5901 24.2519 88.0266 24.9605 89.1439 24.9605C90.74 24.9605 92.6554 24.4094 92.6554 23.0708C92.6554 21.6534 90.2612 21.496 89.2237 21.4172C86.5901 21.1023 83.0786 20.4724 83.0786 16.6928C83.0786 12.4409 87.1487 11.5747 89.4631 11.5747C91.6179 11.5747 93.6131 12.2834 95.688 13.7794L94.6506 16.6928C92.815 15.5117 91.0593 14.9605 89.4631 14.9605C86.9891 14.9605 86.3507 15.9842 86.3507 16.5353C86.3507 17.7164 89.0641 17.9527 89.7824 17.9527C92.2564 18.1889 96.0073 18.6613 96.0073 23.0708C96.0073 27.4015 91.8573 28.3464 89.3833 28.3464Z" fill="#00529C"/>
<path d="M106.622 28.1891H102.95V15.3544H97.6832V12.0474H111.969V15.3544H106.701V28.1891H106.622Z" fill="#00529C"/>
<path d="M121.785 25.118H115.32L114.044 28.1101H110.452L117.236 11.8896H120.029L126.493 28.1101H122.822L121.785 25.118ZM116.518 21.8896H120.508L118.513 16.8503L116.518 21.8896Z" fill="#00529C"/>
<path d="M151.632 19.6065L146.605 27.8743H145.168L140.938 19.6853L140.22 28.1105H136.788L137.985 11.9688H140.859L146.285 22.2837L152.43 11.9688H154.745L155.942 28.1105H152.51L151.632 19.6065Z" fill="#00529C"/>
<path d="M166.636 28.5827C162.566 28.5827 158.496 25.7481 158.496 20.0788C158.496 14.252 162.646 11.4961 166.636 11.4961C170.706 11.4961 174.776 14.4882 174.776 20.0788C174.856 25.8268 170.706 28.5827 166.636 28.5827ZM166.636 15.0394C163.524 15.0394 161.927 17.3229 161.927 20.1575C161.927 22.8347 163.524 25.1181 166.636 25.1181C169.748 25.1181 171.345 22.9922 171.345 20.1575C171.345 17.4016 169.748 15.0394 166.636 15.0394Z" fill="#00529C"/>
<path d="M177.57 12.0474H181.241V24.7245H189.78V28.1891H177.649L177.57 12.0474Z" fill="#00529C"/>
<path d="M198.718 28.1891H192.733V12.0474H199.437C204.065 12.0474 206.938 15.9056 206.938 20.0789C206.938 24.7245 203.666 28.1891 198.718 28.1891ZM198.559 15.2757H196.404C196.404 18.5828 196.404 21.6537 196.404 24.9608H198.559C201.671 24.9608 203.586 22.756 203.586 20.2363C203.507 17.5592 202.23 15.2757 198.559 15.2757Z" fill="#00529C"/>
<path d="M217.233 28.5827C213.163 28.5827 209.093 25.7481 209.093 20.0788C209.093 14.252 213.243 11.4961 217.233 11.4961C221.303 11.4961 225.374 14.4882 225.374 20.0788C225.374 25.8268 221.224 28.5827 217.233 28.5827ZM217.233 15.0394C214.121 15.0394 212.525 17.3229 212.525 20.1575C212.525 22.8347 214.121 25.1181 217.233 25.1181C220.346 25.1181 221.942 22.9922 221.942 20.1575C221.942 17.4016 220.266 15.0394 217.233 15.0394Z" fill="#00529C"/>
<path d="M233.035 28.1892L226.491 12.5199V11.9688H230.082L234.472 23.1499L238.781 11.9688H242.293V12.5199L235.988 28.1892H233.035Z" fill="#00529C"/>
<path d="M244.767 12.0474H256.259V15.3544H248.438C248.438 16.3781 248.438 17.4804 248.438 18.5828H255.062V21.8112H248.438V24.882H256.498V28.1891H244.767V12.0474Z" fill="#00529C"/>
<path d="M260.329 12.0474H264V28.1891H260.329V12.0474Z" fill="#00529C"/>
<path d="M88.4256 36.2993L87.867 34.8033C88.1862 34.567 88.9045 33.8584 89.0641 33.3859C88.266 33.3859 87.9468 32.3623 87.9468 31.7324C87.9468 30.7875 88.7449 30.2363 89.5429 30.2363C90.4208 30.2363 91.0593 31.0237 91.0593 32.2048C91.0593 33.7796 89.7824 35.6694 88.4256 36.2993Z" fill="#00529C"/>
</svg>
