<svg width="16" height="16" viewBox="0 0 16 16" fill="none" xmlns="http://www.w3.org/2000/svg">
<path d="M6.66666 5.33317V3.99984C6.66666 3.64622 6.80714 3.30708 7.05719 3.05703C7.30724 2.80698 7.64637 2.6665 8 2.6665H12.6667C13.0203 2.6665 13.3594 2.80698 13.6095 3.05703C13.8595 3.30708 14 3.64622 14 3.99984V11.9998C14 12.3535 13.8595 12.6926 13.6095 12.9426C13.3594 13.1927 13.0203 13.3332 12.6667 13.3332H8C7.64637 13.3332 7.30724 13.1927 7.05719 12.9426C6.80714 12.6926 6.66666 12.3535 6.66666 11.9998V10.6665M11.3333 7.99984H2M2 7.99984L4 5.99984M2 7.99984L4 9.99984" stroke="#00529C" stroke-width="1.5" stroke-linecap="round" stroke-linejoin="round"/>
</svg>
