<svg width="16" height="16" viewBox="0 0 16 16" fill="none" xmlns="http://www.w3.org/2000/svg">
<path d="M5.33333 9.6665L9.66133 5.3385M8.99732 13.3358L13.3333 8.99984M5.72399 12.9425L12.942 5.7245M10.6667 5.33317V3.99984C10.6667 3.64622 10.5262 3.30708 10.2761 3.05703C10.0261 2.80698 9.68695 2.6665 9.33332 2.6665H3.99999C3.64637 2.6665 3.30723 2.80698 3.05718 3.05703C2.80713 3.30708 2.66666 3.64622 2.66666 3.99984V9.33317C2.66666 9.68679 2.80713 10.0259 3.05718 10.276C3.30723 10.526 3.64637 10.6665 3.99999 10.6665H5.33332M6.66666 5.33317H12C12.7364 5.33317 13.3333 5.93013 13.3333 6.66651V11.9998C13.3333 12.7362 12.7364 13.3332 12 13.3332H6.66666C5.93028 13.3332 5.33333 12.7362 5.33333 11.9998V6.66651C5.33333 5.93013 5.93028 5.33317 6.66666 5.33317Z" stroke="#00529C" stroke-width="1.5" stroke-linecap="round" stroke-linejoin="round"/>
</svg>
