<svg width="16" height="16" viewBox="0 0 16 16" fill="none" xmlns="http://www.w3.org/2000/svg">
<path d="M10 5.33317H11.3333M10 7.99984H11.3333M4.66666 10.6665H11.3333M4 2.6665H12C13.1046 2.6665 14 3.56193 14 4.6665V11.3332C14 12.4377 13.1046 13.3332 12 13.3332H4C2.89543 13.3332 2 12.4377 2 11.3332V4.6665C2 3.56193 2.89543 2.6665 4 2.6665ZM7.33333 6.6665C7.33333 7.40288 6.73638 7.99984 6 7.99984C5.26362 7.99984 4.66666 7.40288 4.66666 6.6665C4.66666 5.93012 5.26362 5.33317 6 5.33317C6.73638 5.33317 7.33333 5.93012 7.33333 6.6665Z" stroke="#00529C" stroke-width="1.5" stroke-linecap="round" stroke-linejoin="round"/>
</svg>
