<svg width="16" height="16" viewBox="0 0 16 16" fill="none" xmlns="http://www.w3.org/2000/svg">
<path d="M9.33335 2.6665V5.33317H5.33334V2.6665M4.00002 2.6665H10.6667L13.3334 5.33317V11.9998C13.3334 12.3535 13.1929 12.6926 12.9428 12.9426C12.6928 13.1927 12.3536 13.3332 12 13.3332H4.00002C3.6464 13.3332 3.30726 13.1927 3.05721 12.9426C2.80716 12.6926 2.66669 12.3535 2.66669 11.9998V3.99984C2.66669 3.64622 2.80716 3.30708 3.05721 3.05703C3.30726 2.80698 3.6464 2.6665 4.00002 2.6665ZM9.33335 9.33317C9.33335 10.0695 8.7364 10.6665 8.00002 10.6665C7.26364 10.6665 6.66669 10.0695 6.66669 9.33317C6.66669 8.59679 7.26364 7.99983 8.00002 7.99983C8.7364 7.99983 9.33335 8.59679 9.33335 9.33317Z" stroke="#00529C" stroke-width="1.5" stroke-linecap="round" stroke-linejoin="round"/>
</svg>
