<svg width="16" height="16" viewBox="0 0 16 16" fill="none" xmlns="http://www.w3.org/2000/svg">
<path d="M2.66663 4.66663V3.99996C2.66663 3.64634 2.8071 3.3072 3.05715 3.05715C3.3072 2.8071 3.64634 2.66663 3.99996 2.66663H5.33329M2.66663 11.3333V12C2.66663 12.3536 2.8071 12.6927 3.05715 12.9428C3.3072 13.1928 3.64634 13.3333 3.99996 13.3333H5.33329M10.6666 2.66663H12C12.3536 2.66663 12.6927 2.8071 12.9428 3.05715C13.1928 3.3072 13.3333 3.64634 13.3333 3.99996V4.66663M10.6666 13.3333H12C12.3536 13.3333 12.6927 13.1928 12.9428 12.9428C13.1928 12.6927 13.3333 12.3536 13.3333 12V11.3333M3.33329 7.99996H12.6666" stroke="#00529C" stroke-linecap="round" stroke-linejoin="round"/>
</svg>
