<svg width="24" height="24" viewBox="0 0 24 24" fill="none" xmlns="http://www.w3.org/2000/svg">
<path d="M4 7V6C4 5.46957 4.21072 4.96086 4.58579 4.58579C4.96086 4.21071 5.46957 4 6 4H8M4 17V18C4 18.5304 4.21072 19.0391 4.58579 19.4142C4.96086 19.7893 5.46957 20 6 20H8M16 4H18C18.5304 4 19.0391 4.21071 19.4142 4.58579C19.7893 4.96086 20 5.46957 20 6V7M16 20H18C18.5304 20 19.0391 19.7893 19.4142 19.4142C19.7893 19.0391 20 18.5304 20 18V17M12 12C11.6342 12.7101 11.1437 13.3487 10.552 13.8853C10.1791 14.2584 9.70394 14.5124 9.18664 14.6154C8.66933 14.7183 8.13311 14.6656 7.6458 14.4638C7.15848 14.262 6.74196 13.9202 6.4489 13.4816C6.15585 13.0431 5.99943 12.5275 5.99943 12C5.99943 11.4726 6.15585 10.9569 6.4489 10.5184C6.74196 10.0799 7.15848 9.73806 7.6458 9.53625C8.13311 9.33444 8.66933 9.28168 9.18664 9.38464C9.70394 9.48759 10.1791 9.74165 10.552 10.1147C11.1437 10.6513 11.6342 11.2899 12 12ZM12 12C12.3658 11.2899 12.8563 10.6513 13.448 10.1147C13.8209 9.74165 14.2961 9.48759 14.8134 9.38464C15.3307 9.28168 15.8669 9.33444 16.3542 9.53625C16.8415 9.73806 17.2581 10.0799 17.5511 10.5184C17.8442 10.9569 18.0006 11.4726 18.0006 12C18.0006 12.5275 17.8442 13.0431 17.5511 13.4816C17.2581 13.9202 16.8415 14.262 16.3542 14.4638C15.8669 14.6656 15.3307 14.7183 14.8134 14.6154C14.2961 14.5124 13.8209 14.2584 13.448 13.8853C12.8563 13.3487 12.3658 12.7101 12 12Z" stroke="#252C32" stroke-width="1.5" stroke-linecap="round" stroke-linejoin="round"/>
</svg>
