<svg width="16" height="16" viewBox="0 0 16 16" fill="none" xmlns="http://www.w3.org/2000/svg">
<path d="M10 14H4C3.46957 14 2.96086 13.7893 2.58579 13.4142C2.21071 13.0391 2 12.5304 2 12V11.3333H8.66667V12.6667C8.66667 13.0203 8.80714 13.3594 9.05719 13.6095C9.30724 13.8595 9.64638 14 10 14ZM10 14C10.3536 14 10.6928 13.8595 10.9428 13.6095C11.1929 13.3594 11.3333 13.0203 11.3333 12.6667V4.66667M11.3333 4.66667H12.6667C12.9304 4.66667 13.1882 4.58847 13.4074 4.44196C13.6267 4.29545 13.7976 4.08722 13.8985 3.84358C13.9994 3.59995 14.0258 3.33186 13.9744 3.07321C13.9229 2.81457 13.7959 2.577 13.6095 2.39053C13.423 2.20406 13.1854 2.07707 12.9268 2.02562C12.6681 1.97417 12.4001 2.00058 12.1564 2.10149C11.9128 2.20241 11.6667 2.33333 11.3333 2.66667V4.66667ZM3.33333 11.3333V4C3.33333 3.46957 3.54405 2.96086 3.91912 2.58579C4.29419 2.21072 4.8029 2 5.33333 2H12.6667M6 4.66667H8.66667M6 7.33333H8.66667" stroke="#9AA6AC" stroke-width="1.5" stroke-linecap="round" stroke-linejoin="round"/>
</svg>
